<?xml version="1.0" encoding="utf-8"?>
<!DOCTYPE svg PUBLIC "-//W3C//DTD SVG 1.0//EN" "http://www.w3.org/TR/2001/REC-SVG-20010904/DTD/svg10.dtd">
<svg style="background:transparent" version="1.0" xmlns="http://www.w3.org/2000/svg" width="2000px" height="2000px" viewBox="0 0 2000 2000" preserveAspectRatio="xMidYMid meet">
 <g fill="#cfe9d5">
  <path d="M0 1000 l0 -1000 1000 0 1000 0 0 1000 0 1000 -1000 0 -1000 0 0 -1000z m1104.30 376.37 c2.54 -3.91 0.20 -8.40 -5.86 -12.50 -3.52 -2.34 -4.69 -1.95 -9.18 2.15 -2.93 2.73 -5.27 5.86 -5.27 7.03 0 1.17 2.34 4.30 5.27 7.03 4.49 4.10 5.66 4.49 9.18 2.15 2.15 -1.56 4.88 -4.10 5.86 -5.86z m-43.95 -86.72 c3.71 -4.49 3.91 -5.66 1.56 -9.18 -4.10 -6.05 -8.59 -8.40 -12.50 -5.86 -1.76 0.98 -4.30 3.71 -5.86 5.86 -2.34 3.52 -2.15 4.69 1.56 9.18 2.15 2.93 5.66 5.27 7.62 5.27 1.95 0 5.47 -2.34 7.62 -5.27z m79.10 -18.75 c3.52 -3.52 4.30 -6.05 3.52 -11.72 -0.78 -6.25 -1.56 -7.23 -5.86 -7.23 -5.86 0 -14.06 7.03 -14.06 11.91 0 3.52 7.03 11.52 10.16 11.52 0.98 0 3.71 -1.95 6.25 -4.49z m-457.23 -6.45 c-1.37 -3.91 -5.86 -3.32 -8.20 0.78 -1.76 3.13 -1.17 3.52 3.71 2.73 3.71 -0.59 5.27 -1.76 4.49 -3.52z m555.08 -118.95 c5.86 -5.66 6.05 -6.84 0.98 -12.30 -5.47 -5.66 -10.55 -5.47 -15.63 0.98 l-4.10 5.08 5.47 5.66 c6.45 6.64 7.23 6.64 13.28 0.59z m-251.56 -11.13 c5.66 -5.27 5.66 -7.03 0.20 -12.70 -5.47 -5.86 -10.16 -5.66 -14.84 0.39 -3.91 4.88 -4.30 4.88 -35.74 5.27 l-32.03 0.39 32.03 0.59 c31.25 0.59 32.23 0.78 36.52 5.47 5.47 6.05 8.01 6.05 13.87 0.59z m344.73 -22.46 c4.88 -4.49 4.49 -9.38 -1.56 -14.06 -5.66 -4.49 -10.74 -3.13 -14.45 3.71 -5.08 9.38 7.81 17.77 16.02 10.35z m-241.99 -17.77 c2.15 -1.95 3.32 -5.66 3.32 -10.55 0 -7.03 -0.39 -7.42 -6.25 -7.42 -6.84 0 -15.23 6.45 -15.23 11.91 0 4.30 9.38 11.91 12.50 10.16 1.17 -0.59 3.71 -2.54 5.66 -4.10z m-227.15 -13.48 c0 -7.62 -4.49 -14.26 -9.77 -14.26 -1.76 0 -5.27 2.15 -7.62 4.69 -3.71 3.91 -4.10 5.47 -2.34 8.79 2.93 5.08 7.62 7.81 14.45 8.01 4.88 0 5.27 -0.59 5.27 -7.23z m52.73 1.95 l4.30 -5.47 39.26 -0.98 39.45 -1.17 -40.23 -0.39 c-37.50 -0.39 -40.43 -0.59 -43.75 -4.30 -4.69 -5.08 -9.77 -4.88 -13.48 0.39 -4.10 5.86 -3.91 8.59 0.78 13.28 5.27 5.27 8.59 4.88 13.67 -1.37z m440.43 -14.26 c4.49 -4.88 2.54 -13.09 -3.91 -16.02 -4.30 -1.95 -5.66 -1.56 -10.35 2.93 l-5.47 5.27 -112.11 0.59 -112.30 0.39 112.70 0.59 112.70 0.39 4.88 4.88 c5.86 5.86 9.18 6.05 13.87 0.98z m-541.02 -22.66 c5.86 -6.25 5.86 -6.84 0.98 -12.11 -5.08 -5.47 -7.42 -5.47 -13.09 0 -5.66 5.27 -5.66 7.03 -0.20 12.70 5.27 5.66 6.64 5.66 12.30 -0.59z m246.88 -1.95 c2.34 -2.93 4.10 -7.81 4.10 -10.74 0 -5.08 -0.78 -5.66 -6.05 -5.66 -7.23 0 -12.70 2.73 -15.43 7.62 -1.37 2.73 -0.98 4.88 2.15 8.79 5.08 6.45 10.16 6.45 15.23 0z m116.99 -25.78 l5.47 -5.47 -5.08 -5.47 c-6.45 -6.64 -13.28 -6.25 -17.38 1.17 -2.93 4.88 -2.73 5.66 1.56 10.16 6.05 6.45 8.59 6.45 15.43 -0.39z m196.88 0.59 c4.49 -4.69 4.88 -5.47 2.34 -9.18 -6.25 -9.38 -12.50 -9.57 -18.36 -0.39 -2.34 3.32 -1.95 4.49 2.34 9.18 6.05 6.45 7.42 6.64 13.67 0.39z m-577.73 -11.72 l3.91 -4.88 73.83 -0.59 74.02 -0.39 -74.61 -0.59 c-47.07 -0.20 -74.80 -1.17 -74.80 -2.34 0 -0.98 -2.15 -3.32 -4.69 -4.88 -3.71 -2.54 -5.66 -2.73 -8.79 -0.98 -7.03 3.71 -8.40 8.79 -3.91 14.45 5.08 6.45 10.16 6.45 15.04 0.20z m-83.20 -16.02 c5.27 -6.25 5.47 -7.81 1.37 -13.09 -2.93 -3.71 -5.86 -5.08 -10.74 -5.08 -6.45 0 -6.64 0.39 -6.64 7.23 0 11.91 9.57 18.36 16.02 10.94z m336.91 -20.51 c-0.39 -2.54 -0.78 -0.59 -0.78 4.30 0 4.88 0.39 6.84 0.78 4.49 0.39 -2.54 0.39 -6.45 0 -8.79z m244.73 6.25 c4.69 -4.69 4.88 -9.18 0.59 -14.06 -4.10 -4.49 -5.27 -4.49 -12.30 0.78 -7.23 5.27 -7.42 8.01 -0.78 13.09 6.45 5.08 7.62 5.08 12.50 0.20z m-186.13 -106.84 c-0.20 -20.12 -0.39 -4.10 -0.39 35.55 0 39.84 0.20 56.25 0.39 36.72 0.39 -19.53 0.39 -51.95 0 -72.27z m-343.36 97.85 c4.30 -5.47 3.71 -8.01 -3.52 -13.87 -4.49 -3.91 -7.42 -3.13 -11.72 3.13 l-4.10 5.66 4.10 5.08 c5.08 6.45 10.16 6.45 15.23 0z m71.88 -3.13 c5.66 -5.27 5.66 -9.57 -0.20 -15.04 -4.49 -4.30 -4.88 -4.30 -9.57 -1.17 -6.05 3.91 -7.81 8.01 -5.27 12.70 1.76 3.32 7.23 7.62 9.57 7.81 0.59 0 2.93 -1.95 5.47 -4.30z m58.20 -0.59 c4.10 -3.91 4.49 -5.47 2.73 -9.38 -1.17 -2.54 -3.91 -5.66 -6.05 -7.03 -3.32 -2.15 -4.49 -1.76 -8.59 1.95 -5.86 5.47 -6.05 12.30 -0.39 16.21 5.86 4.10 6.84 3.91 12.30 -1.76z m112.11 -5.66 c4.10 -4.30 4.49 -5.47 2.54 -9.77 -1.17 -2.73 -3.91 -5.86 -6.25 -7.03 -6.05 -3.32 -15.63 6.84 -15.63 16.80 l0 7.23 7.23 -1.17 c3.91 -0.78 9.38 -3.52 12.11 -6.05z m42.58 -17.19 c-0.39 -2.54 -0.78 -0.59 -0.78 4.30 0 4.88 0.39 6.84 0.78 4.49 0.39 -2.54 0.39 -6.45 0 -8.79z m-416.80 -1.17 c4.69 -4.10 4.10 -8.59 -1.56 -14.06 l-4.88 -4.69 -5.47 4.10 c-7.03 5.27 -7.42 9.18 -1.56 15.23 5.08 5.08 6.84 5.08 13.48 -0.59z m601.37 -5.27 l4.49 -4.88 73.24 -0.39 73.24 -0.59 0 -32.81 0.20 -32.62 -0.59 32.23 -0.59 32.23 -74.22 0 c-47.07 0 -74.22 -0.78 -74.22 -1.95 0 -0.98 -2.15 -3.32 -4.88 -5.08 -4.88 -3.13 -5.27 -3.13 -9.77 1.17 -5.66 5.27 -6.05 8.98 -1.56 14.06 4.30 4.88 9.38 4.49 14.65 -1.37z m-299.22 -14.65 c0.98 -1.95 1.95 -6.25 1.95 -9.57 0 -5.27 -0.59 -6.05 -5.66 -6.05 -6.64 0 -15.82 6.64 -15.82 11.72 0 1.95 2.34 5.47 5.08 7.62 5.66 4.49 10.74 3.13 14.45 -3.71z m250.39 -24.80 c2.15 -1.95 3.52 -5.86 3.52 -10.74 0 -6.45 -0.59 -7.42 -4.69 -7.42 -5.66 0 -14.84 7.03 -14.84 11.13 0 4.10 5.66 10.35 9.38 10.35 1.76 0 4.69 -1.37 6.64 -3.32z m-129.88 -30.27 c4.49 -4.69 4.88 -6.05 2.93 -10.35 -3.32 -7.03 -11.72 -8.59 -16.41 -2.93 -4.69 5.86 -4.49 8.20 1.37 13.67 3.91 3.71 4.88 6.64 5.27 15.43 l0.39 10.94 0.59 -10.74 c0.59 -8.40 1.95 -11.91 5.86 -16.02z m268.16 19.92 c2.15 -2.15 3.91 -5.27 3.91 -6.84 0 -5.27 -7.42 -10.74 -14.65 -10.74 -6.45 0 -6.84 0.39 -6.84 6.25 0 6.45 6.45 15.23 11.13 15.23 1.37 0 4.30 -1.76 6.45 -3.91z m-541.02 -8.20 c5.08 -5.47 4.88 -6.64 -0.98 -12.30 -5.66 -5.86 -6.84 -6.05 -12.30 -0.98 -5.08 4.88 -5.47 9.18 -0.98 14.06 4.30 4.69 9.38 4.49 14.26 -0.78z m-108.01 -77.15 c-0.20 -14.84 -0.59 -2.73 -0.59 26.76 0 29.49 0.39 41.60 0.59 26.95 0.39 -14.84 0.39 -39.06 0 -53.71z m254.30 49.02 c2.34 -2.93 4.10 -7.81 4.10 -10.74 0 -5.08 -0.59 -5.66 -6.84 -5.66 -7.23 0 -14.65 5.47 -14.65 10.74 0 3.71 6.84 10.74 10.55 10.74 1.56 0 4.69 -2.34 6.84 -5.08z m351.37 -102.93 c4.88 -5.08 5.08 -5.66 2.15 -10.74 -2.15 -3.91 -4.49 -5.27 -8.59 -5.27 -4.10 0 -6.45 1.37 -8.59 5.27 -2.93 5.08 -2.73 5.66 2.34 10.94 l5.27 5.47 0.39 41.02 0.59 40.82 0.39 -41.02 0.59 -40.82 5.47 -5.66z m79.10 79.30 c0.98 -9.18 -1.17 -13.87 -7.62 -15.43 -5.47 -1.37 -12.50 3.52 -12.50 8.98 0 5.08 9.96 13.09 16.80 13.48 1.37 0.20 2.73 -3.13 3.32 -7.03z m-727.54 -15.43 c5.08 -3.52 5.47 -9.77 0.98 -14.84 -5.27 -5.86 -11.52 -3.91 -16.80 5.47 -1.56 2.73 5.66 12.50 9.18 12.50 1.17 0 4.30 -1.37 6.64 -3.13z m152.73 -18.36 c-1.17 -2.15 -3.91 -4.88 -6.05 -6.05 -3.32 -1.76 -4.88 -1.37 -8.79 2.34 -6.05 5.66 -5.86 10.35 0.59 15.43 l5.47 4.30 5.47 -6.25 c4.30 -4.88 4.88 -6.64 3.32 -9.77z m200.59 -0.39 c2.54 -2.34 4.49 -5.27 4.49 -6.45 0 -3.32 -7.62 -10.74 -10.74 -10.74 -5.66 0 -10.74 7.42 -10.74 15.82 0 8.01 0 8.01 6.25 6.84 3.52 -0.59 8.20 -3.13 10.74 -5.47z m154.49 -26.17 c5.66 -3.91 5.47 -8.79 -0.59 -14.45 -4.10 -3.91 -4.88 -6.64 -5.27 -16.41 l-0.39 -11.91 -0.59 11.52 c-0.59 9.18 -1.76 12.70 -5.66 16.41 -5.66 5.86 -5.86 8.98 -0.78 14.06 4.69 4.69 7.42 4.88 13.28 0.78z m-454.69 -18.75 c0 -2.34 -9.18 -11.33 -11.72 -11.33 -2.93 0 -9.77 7.42 -9.77 10.74 0 1.76 2.34 5.27 5.27 8.01 l5.08 4.69 5.66 -5.27 c2.93 -2.93 5.47 -6.05 5.47 -6.84z m34.57 -31.25 c3.13 -2.93 4.49 -6.45 4.49 -11.72 0 -7.03 -0.39 -7.42 -5.86 -7.42 -3.91 0 -7.81 1.76 -10.94 4.88 -4.10 4.30 -4.49 5.47 -2.54 9.18 2.15 4.10 7.42 9.18 9.38 9.38 0.59 0 2.93 -1.95 5.47 -4.30z m513.28 -4.49 c6.05 -5.86 6.05 -7.03 0.20 -12.50 -5.86 -5.47 -10.94 -4.69 -14.65 2.15 -2.93 4.88 -2.73 5.66 1.56 10.16 5.86 6.25 7.03 6.25 12.89 0.20z m-118.16 -14.84 c0 -7.23 -2.73 -12.70 -7.62 -15.43 -4.49 -2.34 -13.87 4.10 -13.87 9.77 0 5.08 9.18 11.72 15.82 11.72 5.08 0 5.66 -0.78 5.66 -6.05z m-97.66 -6.25 c7.42 -5.86 8.01 -8.40 3.71 -13.87 -4.69 -5.86 -8.79 -6.45 -13.87 -1.76 -4.69 4.10 -4.49 8.20 0.78 13.67 4.88 5.08 5.27 5.27 9.38 1.95z m174.41 -14.65 c4.10 -3.71 4.30 -7.81 0 -12.50 -4.30 -4.88 -11.52 -4.49 -15.04 0.78 -4.10 5.86 -3.91 6.84 1.95 12.30 5.27 4.88 6.84 4.69 13.09 -0.59z m-312.30 -8.40 c6.25 -4.88 6.45 -9.57 0.39 -15.23 -3.91 -3.71 -5.47 -4.10 -8.79 -2.34 -5.27 2.93 -8.01 8.20 -8.01 15.63 0 5.27 0.59 6.05 5.66 6.05 2.93 0 7.81 -1.76 10.74 -4.10z m51.17 -30.47 c5.47 -1.95 7.23 -8.20 3.71 -13.48 -3.52 -5.47 -9.96 -6.05 -15.04 -1.37 -4.88 4.30 -4.49 9.38 1.37 13.87 4.30 3.52 4.88 5.47 5.27 18.16 l0.39 14.45 0.59 -15.23 c0.59 -11.13 1.56 -15.43 3.71 -16.41z m-108.01 18.75 c2.34 -1.17 5.47 -3.71 6.84 -5.86 3.13 -4.88 -0.59 -11.13 -7.23 -12.89 -6.05 -1.56 -13.87 6.84 -13.87 15.23 0 4.69 0.78 5.66 4.88 5.66 2.54 0 6.84 -0.98 9.38 -2.15z m158.98 -21.09 c3.32 -4.10 3.13 -4.69 -1.37 -9.57 -5.27 -5.47 -12.70 -5.47 -16.41 0 -4.10 5.66 -4.10 6.05 1.95 11.91 4.30 4.49 5.66 4.88 9.38 2.93 2.15 -1.17 5.08 -3.52 6.45 -5.27z m116.80 0.78 c2.73 -2.54 4.88 -6.05 4.88 -7.62 0 -3.71 -9.57 -11.33 -12.50 -9.57 -6.64 3.71 -8.98 7.62 -8.98 14.65 0 7.03 0.39 7.42 5.86 7.42 3.71 0 7.81 -1.76 10.74 -4.88z"/>
 </g>
 <g fill="#181e3c">
  <path d="M1084.38 1387.11 c-9.18 -7.03 -8.79 -22.46 0.78 -28.71 l4.69 -2.93 0 -109.96 0 -109.77 18.16 -18.16 17.97 -17.97 89.65 0 89.45 0 5.47 -5.86 c4.10 -4.49 7.23 -5.86 12.70 -5.86 9.38 0 18.55 8.59 18.55 17.58 0 7.81 -9.18 17.58 -16.60 17.58 -6.25 0 -15.82 -4.69 -17.19 -8.79 -1.17 -2.54 -11.72 -2.93 -88.48 -2.93 l-87.11 0 -15.43 15.04 -15.43 14.84 0 107.03 0 106.84 5.86 5.86 c7.81 8.01 7.81 16.21 0.20 24.02 -6.64 6.64 -16.21 7.62 -23.24 2.15z"/>
  <path d="M683.59 1296.88 c0 -12.30 0.39 -13.67 3.91 -13.67 3.52 0 3.91 1.37 3.91 13.67 0 12.30 -0.39 13.67 -3.91 13.67 -3.52 0 -3.91 -1.37 -3.91 -13.67z"/>
  <path d="M1045.70 1300.78 c-11.52 -4.69 -14.06 -20.31 -4.69 -29.69 l5.86 -5.86 0 -67.77 0 -67.77 -24.02 -23.83 -24.22 -23.83 -36.91 0 -37.11 0 -4.30 5.86 c-3.71 5.08 -5.66 5.86 -13.09 5.86 -15.04 0 -22.46 -12.11 -15.43 -25.20 3.32 -6.45 4.49 -7.03 13.67 -7.62 7.81 -0.39 10.55 0.20 13.48 3.52 3.32 3.71 5.66 3.91 43.75 3.91 l40.04 0 27.93 27.93 27.73 27.73 0.20 70.70 0 70.51 5.86 5.86 c8.01 8.20 8.01 17.97 0.20 25.98 -5.86 5.66 -11.33 6.84 -18.95 3.71z"/>
  <path d="M636.72 1275.39 c0 -12.30 0.39 -13.67 3.91 -13.67 3.52 0 3.91 1.37 3.91 13.67 0 12.30 -0.39 13.67 -3.91 13.67 -3.52 0 -3.91 -1.37 -3.91 -13.67z"/>
  <path d="M1122.85 1278.71 c-8.79 -6.64 -9.77 -17.97 -2.54 -26.56 3.91 -4.88 6.64 -6.05 12.30 -6.05 6.45 0 8.79 -1.56 19.34 -12.50 l12.11 -12.50 0 -44.14 0 -44.14 24.61 0 c23.83 0 24.80 -0.20 28.32 -4.88 6.84 -8.59 21.68 -8.20 28.52 0.78 1.37 1.76 2.54 6.45 2.54 10.55 0 16.21 -18.75 23.24 -30.27 11.13 -5.08 -5.47 -6.64 -5.86 -18.75 -5.86 -7.23 0 -15.43 0.78 -18.16 1.95 l-5.08 1.95 0 39.65 0 39.65 -13.48 13.28 c-13.09 12.89 -13.28 13.48 -12.30 21.68 0.78 7.23 0.20 9.18 -4.10 13.48 -5.66 5.66 -17.38 6.84 -23.05 2.54z"/>
  <path d="M970.51 1143.55 c-2.93 -1.56 -5.66 -4.10 -6.45 -5.86 -0.78 -2.54 -6.25 -2.93 -33.40 -2.93 l-32.42 0 -20.12 -20.51 c-18.36 -18.75 -20.70 -20.51 -27.34 -20.51 -9.96 0 -16.80 -7.03 -16.80 -17.19 0 -10.55 6.05 -16.02 17.97 -16.02 11.72 0 16.21 4.88 16.21 17.77 0 9.38 0.39 9.77 16.60 26.17 l16.60 16.60 29.88 0 c29.69 0 30.08 0 33.98 -4.88 3.13 -3.91 5.47 -4.88 13.09 -4.88 12.11 0 17.77 5.47 17.77 16.99 0 6.64 -1.17 8.98 -6.05 13.09 -6.64 5.66 -11.91 6.25 -19.53 2.15z"/>
  <path d="M1067.97 1099.61 c-5.08 -5.27 -5.86 -7.03 -4.88 -13.09 1.76 -10.35 8.20 -16.21 17.58 -16.21 6.25 0 9.38 -1.37 16.21 -7.81 l8.59 -7.81 111.91 0 112.11 0 4.49 -4.88 c6.64 -7.23 19.73 -6.84 26.56 0.59 4.10 4.30 4.88 6.64 4.10 12.70 -1.76 13.67 -11.52 19.34 -23.83 14.26 -3.71 -1.56 -7.42 -4.30 -8.01 -6.05 -0.98 -2.54 -13.87 -2.93 -112.11 -2.93 l-110.94 0 -6.05 5.08 c-5.08 4.30 -5.86 6.25 -5.66 13.87 0 7.62 -0.78 9.96 -5.08 13.67 -7.81 6.64 -17.58 6.05 -25 -1.37z"/>
  <path d="M1045.70 1054.69 c-8.98 -3.71 -13.28 -16.60 -8.59 -25.59 2.93 -5.27 12.70 -9.77 20.31 -9.18 6.05 0.59 8.40 -1.17 25.39 -17.77 l18.75 -18.36 0 -75.39 0 -75.39 -24.41 -24.41 -24.41 -24.41 0 -61.52 0 -61.72 11.72 -11.52 c10.94 -10.94 11.72 -12.30 10.74 -18.55 -1.37 -8.79 0.98 -12.11 8.01 -11.33 4.88 0.39 5.66 1.56 6.25 7.03 0.39 3.91 1.76 6.25 3.52 6.25 1.76 0 2.73 2.15 2.73 5.86 0 4.69 -0.78 5.86 -4.10 5.86 -2.15 0 -9.18 4.88 -15.63 11.13 l-11.52 10.94 0 55.86 0 55.86 25.39 25.39 25.39 25.39 0 79.30 -0.20 79.10 -22.27 22.27 c-19.34 19.34 -22.46 23.24 -22.46 28.71 0 11.91 -13.67 20.90 -24.61 16.21z"/>
  <path d="M1163.09 1029.49 c-10.74 -4.49 -14.65 -18.36 -8.20 -28.32 2.93 -4.49 4.69 -5.08 14.06 -5.08 8.79 0 11.13 0.78 14.26 4.88 l3.91 4.88 81.05 0 81.05 0 5.86 -5.86 c8.01 -7.81 16.21 -7.81 24.02 -0.20 11.72 11.91 4.69 29.49 -11.72 29.49 -6.45 0 -8.98 -1.17 -13.28 -5.86 l-5.08 -5.86 -79.88 0 -79.88 0 -4.49 4.88 c-3.91 4.30 -12.89 8.98 -16.41 8.59 -0.78 0 -3.13 -0.78 -5.27 -1.56z"/>
  <path d="M777.34 1014.06 c-11.91 -12.11 -5.08 -29.69 11.72 -29.69 5.86 0 9.18 1.17 12.89 4.88 l5.08 5.08 74.02 -0.59 c69.34 -0.59 74.02 -0.39 74.02 2.93 0 1.76 0.98 3.32 2.34 3.32 1.17 0 0.59 1.76 -1.37 3.91 -3.32 3.71 -6.05 3.91 -76.56 3.91 l-73.05 0 -4.30 4.88 c-2.54 2.93 -7.23 5.47 -11.52 6.25 -6.25 0.98 -8.01 0.20 -13.28 -4.88z"/>
  <path d="M699.80 1000 c-6.84 -2.73 -10.94 -10.74 -9.77 -18.55 0.98 -6.05 0.20 -7.62 -10.55 -17.77 l-11.52 -11.33 0 -95.31 c0 -90.82 -0.20 -95.31 -3.71 -97.07 -4.88 -2.73 -8.79 -12.70 -7.23 -18.75 3.32 -12.89 20.12 -17.38 29.49 -7.81 6.64 6.45 6.64 17.38 0.20 24.22 l-4.88 5.08 -0.78 91.80 -0.78 91.60 9.77 10.35 c8.79 9.38 10.55 10.35 18.16 10.35 6.64 0 9.18 0.98 12.30 5.08 6.05 7.62 5.47 17.38 -1.56 24.41 -5.86 5.66 -11.33 6.84 -19.14 3.71z"/>
  <path d="M1042.97 930.66 l0 -57.62 8.01 0 c5.27 0 7.42 0.78 6.45 2.15 -0.78 1.17 -1.17 27.15 -1.17 57.62 l0.20 55.47 -6.84 0 -6.64 0 0 -57.62z"/>
  <path d="M1276.76 982.42 c-4.49 -3.52 -7.81 -3.91 -43.95 -3.91 -41.02 0 -44.53 -0.78 -42.97 -8.98 0.59 -3.13 3.91 -3.52 41.21 -2.93 33.40 0.39 40.43 0 40.43 -2.15 0 -4.88 10.94 -11.33 19.34 -11.33 13.09 0 19.53 12.50 12.89 25.20 -1.56 3.13 -4.30 6.05 -5.86 6.84 -6.25 2.34 -16.21 1.17 -21.09 -2.73z"/>
  <path d="M745.90 974.80 c-7.23 -7.23 -7.42 -16.02 -0.78 -24.80 3.71 -4.69 4.88 -8.79 4.88 -15.82 l0 -9.38 -24.41 -24.41 -24.41 -24.41 0 -63.87 0 -64.06 38.48 0 38.48 0 39.65 -39.45 39.65 -39.45 0 -9.57 c0 -12.30 6.05 -18.95 17.38 -18.95 6.25 0 8.59 1.17 12.89 6.25 4.30 5.08 5.08 7.62 4.10 13.09 -1.37 8.79 -8.98 15.82 -17.38 15.82 -5.47 0 -10.55 4.30 -41.41 35.16 -19.34 19.53 -39.06 38.28 -43.75 41.99 l-8.59 6.84 -33.79 0 -33.98 0 0 55.27 0 55.08 24.41 24.41 24.41 24.41 0 13.09 c0 8.01 0.78 13.28 1.95 13.28 4.69 0 11.72 10.35 11.72 16.99 0 8.98 -8.98 18.16 -17.58 18.16 -4.30 0 -8.01 -1.76 -11.91 -5.66z"/>
  <path d="M975.98 972.85 c-0.59 -2.34 0.59 -5.27 2.73 -7.23 2.54 -2.34 3.71 -6.05 3.71 -11.91 0 -20.90 26.37 -28.32 34.18 -9.77 5.47 13.09 -2.15 24.61 -17.38 26.17 -4.88 0.59 -9.96 2.34 -11.13 3.71 -3.32 4.10 -10.94 3.32 -12.11 -0.98z"/>
  <path d="M819.34 969.73 c-7.23 -7.03 -6.84 -19.14 0.98 -25.98 l5.86 -5.08 0 -88.09 0 -87.89 39.06 -39.45 c38.87 -39.65 46.88 -45.51 46.88 -35.16 0 3.13 -10.74 15.23 -37.11 41.41 l-37.11 37.11 0 85.74 0 85.55 5.86 6.84 c7.42 8.20 7.62 15.82 0.78 23.83 -6.64 8.01 -17.97 8.59 -25.20 1.17z"/>
  <path d="M876.95 971.09 c-2.54 -1.95 -4.49 -6.45 -5.27 -11.33 -0.78 -6.84 -0.20 -8.79 5.08 -14.84 l6.05 -7.03 0 -69.53 0 -69.73 41.99 -41.02 41.99 -41.21 0.39 -37.50 0.59 -37.30 7.42 -0.59 c4.10 -0.39 7.23 0.20 7.23 1.37 0 1.17 -0.78 2.15 -1.95 2.15 -1.17 0 -1.95 14.26 -1.95 38.67 l0 38.67 -41.99 40.82 -41.99 40.82 0 67.77 c0 63.67 0.20 68.16 3.52 70.51 9.18 6.45 10.94 20.51 3.32 27.93 -5.86 5.86 -17.97 6.64 -24.41 1.37z"/>
  <path d="M1157.62 941.80 l-18.95 -18.95 0 -44.92 0 -44.92 19.53 -19.53 19.53 -19.53 0 -54.49 0 -54.49 -4.88 -4.49 c-3.71 -3.32 -4.88 -6.45 -4.88 -12.11 0 -10.55 4.69 -15.82 15.82 -17.19 8.20 -1.17 9.18 -0.78 14.06 5.08 7.42 8.79 7.03 16.41 -1.56 24.61 l-6.84 6.45 0 56.45 0 56.45 -19.53 18.55 -19.53 18.75 0 39.84 0 39.84 17.58 17.58 c18.36 18.16 22.46 26.17 13.09 26.17 -2.93 0 -10.55 -6.05 -23.44 -19.14z"/>
  <path d="M615.82 948.24 c-9.77 -6.84 -9.77 -22.85 0.39 -29.49 l4.88 -3.13 0 -47.46 0 -47.46 -5.86 -5.86 c-7.23 -7.23 -7.81 -16.80 -1.76 -24.61 3.32 -4.30 5.66 -5.08 13.28 -5.08 12.11 0 16.80 4.69 16.80 16.99 0 7.23 -0.98 9.57 -5.47 13.09 l-5.27 4.30 0 47.46 0 47.46 5.86 6.84 c7.81 8.79 7.81 16.60 0.20 24.22 -6.45 6.45 -16.02 7.62 -23.05 2.73z"/>
  <path d="M1214.65 941.60 c-7.23 -7.23 -7.42 -15.43 -0.59 -23.44 6.64 -8.01 17.97 -8.59 25.39 -1.17 l4.88 4.88 67.19 0 67.38 0 0 -29.88 0 -29.88 -12.11 -11.91 c-7.62 -7.42 -14.65 -12.50 -18.36 -13.28 -8.98 -1.76 -15.43 -9.38 -15.43 -18.55 0 -10.94 5.08 -15.63 16.99 -15.63 13.67 0 17.97 4.88 16.60 18.55 l-0.98 10.16 13.48 13.48 13.48 13.48 -0.39 38.09 -0.59 38.09 -73.24 0.39 c-68.75 0.59 -73.44 0.78 -76.17 4.10 -8.01 9.77 -19.34 10.74 -27.54 2.54z"/>
  <path d="M913.87 927.93 c-3.91 -3.91 -5.66 -7.62 -5.66 -11.91 0 -9.18 9.18 -17.58 18.95 -17.58 7.23 0 9.38 -1.56 44.14 -36.52 l36.52 -36.72 0 -63.28 0 -63.09 -5.86 -6.84 c-7.81 -8.79 -7.81 -16.60 -0.20 -24.22 7.81 -7.62 16.02 -7.62 23.83 0 7.81 8.01 7.81 17.38 -0.20 25 l-5.86 5.47 0 66.41 0 66.41 -38.09 38.09 c-37.70 37.70 -38.09 38.09 -38.09 46.48 0 16.99 -17.38 24.22 -29.49 12.30z"/>
  <path d="M1173.05 901.37 c-1.76 -2.54 -3.13 -8.20 -3.13 -12.70 0 -7.42 0.39 -7.81 6.05 -7.81 10.55 0 13.48 2.93 13.48 13.48 0 6.84 -0.78 9.96 -3.13 10.74 -5.86 2.34 -10.16 1.17 -13.28 -3.71z"/>
  <path d="M1312.50 895.12 c-7.23 -2.73 -11.72 -9.18 -11.72 -16.99 0 -7.62 -1.17 -9.18 -16.60 -24.61 l-16.60 -16.60 0 -39.65 0 -39.84 -5.86 -6.84 c-6.84 -7.62 -7.23 -12.89 -1.95 -21.48 3.52 -6.05 4.49 -6.45 14.45 -6.45 8.79 0 11.33 0.78 13.67 4.30 4.88 7.03 4.10 19.53 -1.76 25 l-4.88 4.49 0 38.28 0 38.48 14.45 14.26 c11.91 11.72 15.04 14.06 18.75 12.89 8.98 -2.73 21.48 7.42 21.48 17.58 0 11.33 -13.09 20.90 -23.44 17.19z"/>
  <path d="M775.39 886.91 c0 -0.98 -1.56 -2.34 -3.71 -3.13 -12.11 -3.71 -15.63 -16.02 -7.03 -25.20 4.69 -4.88 4.88 -6.64 4.88 -26.76 0 -12.89 -0.78 -21.29 -1.95 -21.29 -0.98 0 -1.95 -0.78 -1.95 -1.95 0 -3.32 13.09 -2.34 14.45 1.17 0.59 1.76 1.17 11.91 1.17 22.66 0 19.14 0.20 19.53 5.86 25 9.38 8.79 7.81 23.05 -3.32 28.91 -5.08 2.73 -8.40 2.93 -8.40 0.59z"/>
  <path d="M914.84 858.59 c-6.84 -3.13 -11.52 -12.50 -9.77 -19.73 2.15 -8.40 8.01 -12.70 17.38 -12.70 7.81 0 9.18 -0.98 24.41 -16.21 14.45 -14.45 16.02 -16.99 14.84 -21.68 -1.56 -6.25 2.34 -16.21 7.23 -18.75 5.66 -3.13 18.75 -2.34 22.27 1.37 11.72 11.52 5.27 28.52 -11.91 31.25 -5.86 0.98 -11.33 4.49 -23.63 15.82 -15.63 13.87 -16.21 14.84 -16.21 23.05 0 14.65 -11.91 23.24 -24.61 17.58z"/>
  <path d="M1124.61 772.46 c-7.62 -4.30 -10.55 -14.65 -6.45 -23.24 1.76 -3.71 4.49 -7.23 6.05 -7.81 1.95 -0.78 2.73 -4.30 2.73 -11.72 0 -9.96 -0.59 -11.13 -7.23 -16.60 -5.27 -4.30 -9.38 -6.05 -14.65 -6.05 -9.57 0 -16.99 -6.45 -18.55 -16.02 -0.98 -6.25 -0.20 -8.01 4.88 -13.28 6.25 -6.25 14.84 -7.62 22.27 -3.71 4.69 2.54 9.77 14.06 8.20 18.36 -0.78 1.95 2.15 6.64 8.79 13.67 9.57 10.16 9.96 10.94 9.96 22.07 0 9.57 0.78 12.11 4.69 16.02 9.57 8.79 8.20 22.66 -2.54 28.32 -7.23 3.52 -11.33 3.71 -18.16 0z"/>
  <path d="M705.27 721.88 c-2.93 -3.32 -0.78 -20.90 2.54 -23.05 1.17 -0.78 6.64 -1.95 12.30 -2.73 l10.16 -1.17 0.59 -10.16 0.59 -9.96 23.44 -0.59 23.44 -0.59 12.30 -12.11 c8.79 -8.59 12.11 -13.48 12.11 -17.19 0 -2.73 1.76 -7.42 4.10 -10.35 3.32 -4.30 5.47 -5.08 13.48 -5.08 11.91 0 17.58 5.08 17.58 15.43 -0.20 11.72 -7.62 17.77 -21.88 17.77 -7.81 0 -9.57 0.98 -20.12 11.72 l-11.52 11.72 -16.80 0 c-19.53 0.20 -31.25 2.34 -34.57 7.03 -1.56 1.95 -1.95 6.25 -1.37 11.33 0.98 7.03 0.39 9.18 -4.10 14.45 -4.10 5.08 -6.64 6.25 -12.70 6.25 -4.10 0 -8.40 -1.17 -9.57 -2.73z"/>
 </g>
 <g fill="#111733">
  <path d="M641.99 1358.01 c-1.56 -2.34 0.78 -25.98 2.54 -25 1.37 0.78 0.78 24.22 -0.59 25.78 -0.59 0.39 -1.37 0.20 -1.95 -0.78z"/>
  <path d="M759.57 1350 c-0.59 -7.23 0 -10.16 1.76 -10.16 2.54 0 2.93 10.35 0.59 16.60 -1.17 2.93 -1.76 1.17 -2.34 -6.45z"/>
  <path d="M637.89 1310.94 c-0.59 -0.98 -0.78 -14.06 -0.59 -29.30 l0.39 -27.73 8.01 0 c13.28 0 15.43 4.10 15.43 29.49 0 16.21 -0.59 21.88 -2.93 23.83 -3.32 3.32 -18.75 6.05 -20.31 3.71z m14.45 -27.15 c0 -16.21 -0.39 -18.36 -3.13 -17.38 -1.76 0.59 -3.52 1.17 -3.91 1.17 -1.17 0 -0.98 34.38 0.39 35.74 0.59 0.59 2.34 0.59 3.91 0 2.15 -0.78 2.73 -5.47 2.73 -19.53z"/>
  <path d="M670.12 1308.79 c-3.71 -3.71 -4.10 -6.45 -4.10 -25.59 0 -18.95 0.39 -21.88 3.91 -25.39 6.45 -6.45 14.84 -5.08 19.34 3.32 3.91 7.81 2.73 12.30 -3.32 12.30 -10.16 0 -13.87 8.01 -10.94 23.24 0.98 4.10 2.34 6.05 4.88 6.05 2.93 0 3.71 -1.37 3.71 -6.64 0 -3.71 -0.98 -7.03 -2.34 -7.42 -3.91 -1.37 0 -7.42 4.88 -7.42 4.49 0 4.69 0.59 4.49 14.65 -0.20 9.38 -0.98 14.65 -2.34 14.65 -1.17 0 -4.88 0.59 -8.20 1.17 -4.30 0.98 -6.84 0.20 -9.96 -2.93z"/>
  <path d="M613.28 1282.23 l0 -28.32 9.77 0 c9.18 0 9.77 0.39 9.77 4.88 0 4.10 -0.98 4.88 -6.05 4.88 -5.66 0 -5.86 0.39 -5.27 7.42 0.59 6.25 1.37 7.23 5.66 7.81 4.10 0.39 5.08 1.37 4.30 4.49 -0.59 2.34 -2.73 3.71 -5.66 3.71 -4.10 0 -4.69 0.98 -4.69 7.81 0 7.42 0.39 7.81 5.86 7.81 4.49 0 5.86 0.78 5.86 3.91 0 3.32 -1.37 3.91 -9.77 3.91 l-9.77 0 0 -28.32z"/>
  <path d="M701.17 1298.24 c0 -6.64 -1.76 -18.55 -3.91 -26.37 -4.88 -17.19 -4.88 -16.41 0.39 -15.63 3.52 0.39 4.69 2.54 6.25 9.38 1.56 8.01 1.76 8.40 3.13 3.91 0.98 -2.73 2.15 -7.23 2.73 -10.16 0.78 -3.71 2.54 -5.47 5.08 -5.47 4.88 0 4.88 1.56 0 18.55 -2.15 7.42 -3.91 19.14 -3.91 25.78 0 11.91 -0.20 12.30 -4.88 12.30 -4.69 0 -4.88 -0.39 -4.88 -12.30z"/>
  <path d="M1044.53 1299.61 c-11.13 -5.86 -12.70 -19.14 -3.71 -28.32 4.69 -4.69 6.05 -7.81 6.64 -16.02 l0.59 -10.16 0.39 11.72 c0.39 9.96 -0.20 12.11 -3.52 14.26 -2.15 1.37 -3.91 4.10 -3.91 6.05 0 2.15 -0.98 4.10 -2.15 4.49 -1.17 0.39 0 3.71 2.93 7.81 2.54 3.91 4.30 7.62 3.52 8.20 -0.59 0.59 2.73 1.17 7.23 1.17 5.08 0 7.81 0.78 7.03 1.95 -1.76 2.73 -8.79 2.34 -15.04 -1.17z"/>
  <path d="M1065.63 1292.77 c3.32 -7.42 2.54 -17.77 -1.37 -16.80 -1.17 0.20 -3.52 -1.56 -5.08 -3.91 -2.73 -4.10 -2.73 -4.49 0 -4.49 4.69 0 11.13 9.57 11.13 16.60 0 3.52 -1.76 8.40 -3.91 10.94 l-3.91 4.69 3.13 -7.03z"/>
  <path d="M794.14 1050.59 c-6.45 -7.62 -6.45 -13.48 0 -21.09 4.30 -5.08 6.45 -6.05 13.67 -6.05 6.84 0 9.57 0.98 12.89 4.88 l4.30 4.88 84.77 0 84.96 0 24.22 -23.83 24.02 -23.83 0 -54.69 0 -54.69 -5.27 -5.47 c-6.25 -6.45 -7.03 -16.02 -1.95 -23.83 2.93 -4.30 4.88 -5.08 13.09 -5.08 14.06 0 19.14 5.86 17.58 20.51 -0.20 2.15 -2.54 6.25 -5.27 9.18 l-5.08 5.27 0.20 55.66 0.20 55.66 -27.93 28.32 -27.93 28.52 -87.70 0 -87.89 0 -5.08 5.86 c-4.10 4.69 -6.64 5.86 -12.89 5.86 -6.45 0 -8.79 -1.17 -12.89 -6.05z m258.59 -122.27 c0 -31.64 -0.78 -49.41 -1.95 -49.41 -2.15 0 -2.34 1.95 -2.93 57.62 -0.20 22.66 0 42.19 0.59 43.55 2.93 8.40 4.30 -7.62 4.30 -51.76z"/>
  <path d="M1377.93 1023.44 c7.42 -8.20 2.34 -25.39 -7.23 -25.39 -1.95 0 -3.52 0.98 -3.52 2.15 0 0.98 -0.98 1.37 -1.95 0.78 -1.17 -0.78 -1.95 -0.59 -1.76 0.39 0.59 3.71 -0.39 6.45 -2.34 6.45 -0.98 0 -1.37 -0.78 -0.78 -1.95 1.56 -2.73 -1.56 -2.54 -4.30 0.20 -1.17 1.17 -3.32 1.76 -4.88 1.37 -4.88 -1.76 9.18 -13.28 16.02 -13.28 8.59 0 17.58 9.18 17.58 17.97 0 6.84 -4.49 15.23 -8.20 15.23 -1.17 0 -0.59 -1.76 1.37 -3.91z"/>
  <path d="M949.22 1002.15 c0 -2.15 -1.56 -4.10 -3.32 -4.69 -2.93 -0.59 -2.73 -1.17 1.37 -2.93 2.73 -0.98 10.94 -8.20 18.55 -15.82 14.06 -14.26 16.60 -16.02 16.60 -10.74 0 2.15 1.17 2.73 3.91 1.76 7.23 -2.34 3.91 2.34 -13.67 19.34 -17.38 16.80 -23.44 20.12 -23.44 13.09z"/>
  <path d="M716.60 995.31 c6.05 -6.45 6.05 -18.16 0.20 -23.05 -2.34 -1.95 -7.62 -3.52 -11.52 -3.52 -6.25 0 -8.59 -1.56 -17.38 -10.74 l-10.16 -10.74 0.39 -93.16 c0.59 -77.34 0.98 -93.16 3.32 -93.95 1.56 -0.59 2.15 0 1.56 0.98 -0.59 0.98 -1.56 42.97 -1.95 93.16 l-0.78 91.60 8.98 10.35 c8.40 9.57 9.57 10.16 18.16 10.35 7.42 0.20 9.77 1.17 13.09 5.27 5.66 7.03 5.27 16.60 -0.78 23.05 -2.54 2.73 -5.27 5.08 -6.05 5.08 -0.78 0 0.59 -2.15 2.93 -4.69z"/>
  <path d="M1278.32 982.42 c-3.32 -3.71 -6.05 -3.91 -43.75 -3.91 l-40.43 0 -14.45 -14.65 c-13.09 -13.28 -16.60 -19.14 -6.64 -11.72 5.27 3.91 7.23 3.52 4.69 -0.98 -3.91 -7.42 2.73 -4.30 12.70 5.86 l9.57 9.77 36.72 0 36.91 0 1.17 5.86 c1.17 6.05 4.69 8.98 14.06 11.91 4.88 1.37 4.88 1.37 -0.98 1.56 -3.71 0.20 -7.42 -1.37 -9.57 -3.71z m-11.72 -10.94 c-3.13 -2.34 -9.57 -2.93 -35.55 -2.34 -22.07 0.39 -32.42 1.37 -34.18 3.13 -1.95 1.76 5.27 2.34 35.74 2.34 34.38 -0.20 37.50 -0.39 33.98 -3.13z"/>
  <path d="M819.34 969.73 c-7.23 -7.03 -6.64 -17.97 0.98 -25.39 l5.86 -5.66 0 -87.89 0 -87.89 46.88 -47.27 46.88 -47.07 0 -11.91 c0 -10.55 -0.59 -12.50 -5.86 -17.58 -11.13 -11.13 -5.08 -26.95 11.13 -29.10 6.84 -0.98 8.79 -0.39 13.09 3.91 7.03 7.03 7.03 19.14 0.20 25.59 -4.30 3.91 -4.88 6.25 -4.88 17.97 0 7.42 -0.78 14.45 -1.56 15.43 -0.78 1.17 -22.85 23.05 -49.22 48.83 -41.41 40.63 -43.16 41.99 -12.11 10.55 32.03 -32.62 40.04 -42.77 33.20 -42.77 -1.17 0 -18.75 16.80 -39.06 37.30 l-36.72 37.50 0 89.45 c0 88.48 0 89.45 -4.10 90.63 -4.10 1.37 -7.62 8.20 -7.62 14.65 0 5.47 6.25 11.91 13.67 13.67 l6.84 1.56 -6.45 0.20 c-4.49 0.20 -8.01 -1.37 -11.13 -4.69z"/>
  <path d="M897.85 970.70 c8.20 -9.38 7.42 -20.51 -1.76 -26.95 -3.32 -2.34 -3.52 -6.84 -3.52 -71.29 l0 -68.75 39.06 -39.06 c29.88 -29.88 39.06 -40.23 39.06 -43.95 0 -4.10 -5.66 0.78 -35.55 30.27 l-35.74 35.16 33.79 -34.18 33.59 -34.18 0 -35.16 0 -35.16 -5.86 -5.47 c-6.64 -6.45 -8.01 -16.99 -2.73 -24.41 4.30 -6.25 22.27 -6.25 28.13 0 5.08 5.66 5.27 16.99 0 22.27 -6.25 6.05 -9.77 8.79 -9.77 7.23 0 -0.78 -0.98 -0.39 -2.15 0.78 -2.54 2.54 -3.91 59.18 -1.76 66.60 0.98 2.93 1.76 4.49 1.76 3.32 0.20 -0.98 0.98 -0.78 1.95 0.59 0.98 1.76 -11.13 15.04 -40.23 43.75 l-41.60 41.41 0 67.77 0 67.77 5.86 5.86 c8.20 8.40 8.01 17.19 -0.39 25 -4.88 4.30 -5.47 4.49 -2.15 0.78z"/>
  <path d="M615.43 947.27 c-3.52 -2.73 -8.01 -11.33 -8.01 -15.82 0 -0.98 3.13 -5.08 6.84 -9.18 l6.84 -7.62 0.59 -36.91 0.39 -36.91 0.59 38.28 0.39 38.09 -5.86 4.30 c-10.55 7.81 -7.23 22.27 6.05 26.95 6.05 2.34 6.25 2.34 1.37 2.15 -2.93 -0.20 -7.03 -1.56 -9.18 -3.32z"/>
  <path d="M1167.77 900.59 c-3.91 -3.91 -5.66 -7.62 -5.66 -11.91 0 -9.18 9.18 -17.58 18.95 -17.58 6.84 0 8.98 -1.56 23.63 -16.21 l16.02 -16.02 0 -58.79 0 -58.79 -4.69 -4.49 c-6.45 -5.86 -8.01 -13.87 -4.30 -21.29 5.86 -11.13 16.60 -13.09 26.37 -4.88 8.59 7.03 8.59 18.36 0.20 26.17 l-5.86 5.47 0 61.13 0 61.33 -17.97 17.97 c-16.60 16.80 -17.97 18.75 -17.38 25 0.39 5.47 -0.78 8.01 -5.27 12.70 -8.01 7.81 -16.21 7.81 -24.02 0.20z m12.70 -11.33 c-5.08 -3.71 -5.66 0 -1.37 6.64 l3.52 5.27 0.59 -4.69 c0.59 -2.93 -0.59 -5.66 -2.73 -7.23z"/>
  <path d="M710.35 884.96 l-9.18 -9.77 0.39 -51.37 0.59 -51.37 0.39 50.78 0.59 50.78 9.18 9.18 c5.08 5.08 8.59 9.77 8.20 10.35 -0.59 0.59 -5.27 -3.32 -10.16 -8.59z"/>
  <path d="M763.48 883.01 c-8.20 -8.20 -7.03 -20.31 2.34 -27.15 1.95 -1.37 3.91 -4.30 4.30 -6.84 l0.78 -4.30 1.56 4.49 c2.73 8.40 4.30 4.10 4.69 -12.30 0.20 -12.11 -0.39 -17.77 -2.54 -20.90 -2.73 -3.91 -2.93 -3.32 -3.71 7.42 l-0.59 11.52 -0.39 -11.13 c-0.39 -9.38 -1.17 -11.91 -6.25 -16.80 -7.42 -7.62 -7.62 -15.43 -0.78 -23.63 4.10 -4.88 6.45 -6.05 12.70 -6.05 16.60 0 23.05 16.80 11.52 29.88 -5.66 6.45 -5.86 7.42 -5.86 25.78 0 18.75 0 18.95 6.05 24.61 5.47 5.08 6.05 6.64 5.08 14.06 -2.15 16.21 -17.77 22.27 -28.91 11.33z m26.37 -7.62 c2.34 -8.40 -0.98 -16.02 -7.23 -16.02 -4.30 0 -12.70 4.69 -15.43 8.59 -1.37 2.15 4.88 8.20 10.35 9.96 2.15 0.78 3.71 2.15 3.71 3.13 0 4.69 6.84 0.20 8.59 -5.66z"/>
  <path d="M935.55 836.13 c0 -2.93 9.77 -13.67 14.45 -16.02 2.34 -1.37 0.59 1.37 -4.30 6.45 -4.49 4.69 -7.62 9.18 -7.03 9.96 0.78 0.78 0.39 1.37 -0.78 1.37 -1.37 0 -2.34 -0.78 -2.34 -1.76z"/>
  <path d="M1076.76 808.01 l-24.02 -24.02 0 -61.33 0 -61.33 13.09 -13.28 c10.94 -10.94 12.50 -13.48 10.55 -16.02 -3.52 -4.30 -0.98 -14.06 5.08 -18.75 15.04 -11.72 35.74 4.69 27.15 21.29 -3.71 7.23 -8.59 9.96 -16.99 9.96 -5.27 0 -8.40 2.15 -17.77 11.52 -6.25 6.45 -11.33 11.13 -11.33 10.35 0 -0.78 4.88 -6.25 10.74 -12.11 5.86 -5.66 10.16 -11.13 9.57 -12.11 -0.59 -0.78 0.98 -1.76 3.52 -1.76 3.32 -0.20 3.52 -0.59 1.17 -1.17 -1.95 -0.39 -3.52 -1.95 -3.52 -3.13 0 -1.17 -6.64 4.30 -14.65 12.30 l-14.65 14.45 0 59.77 0 59.57 21.68 21.48 c18.36 18.16 27.15 28.32 24.80 28.32 -0.39 0 -11.33 -10.74 -24.41 -24.02z m6.84 -178.52 c-0.98 -4.88 -5.47 -5.47 -5.47 -0.78 0 2.34 1.17 4.10 3.13 4.10 1.76 0 2.73 -1.37 2.34 -3.32z"/>
  <path d="M1125.59 773.05 c-5.66 -2.73 -10.94 -14.06 -9.18 -19.73 0.59 -2.34 3.32 -6.64 6.05 -9.57 4.30 -4.49 4.88 -6.45 4.10 -16.80 -0.20 -6.45 0 -12.50 0.78 -13.28 0.78 -0.78 0 -2.73 -1.95 -4.49 -1.95 -1.76 -4.10 -4.69 -4.88 -6.45 -2.34 -6.45 3.71 -3.71 12.11 5.27 7.42 8.20 8.01 9.38 8.01 20.12 0 9.57 0.78 12.11 4.69 16.02 5.66 5.08 8.40 15.04 5.27 18.16 -1.56 1.56 -2.15 0.20 -2.15 -5.27 0 -5.66 -1.37 -8.59 -5.86 -12.50 -5.27 -4.69 -5.86 -6.45 -5.86 -16.41 0 -8.79 -0.59 -11.33 -2.93 -11.33 -2.34 0 -2.93 2.54 -2.93 11.33 0 9.77 -0.59 11.72 -5.86 16.60 -11.33 10.74 -5.86 26.76 8.98 26.76 4.10 0 6.45 0.78 5.66 1.95 -1.56 2.54 -8.59 2.34 -14.06 -0.39z"/>
  <path d="M704.88 722.07 c-13.67 -10.55 -7.81 -32.62 8.79 -32.62 5.66 0 8.01 -1.37 13.09 -7.81 l6.25 -7.81 24.41 0 c13.48 0 23.83 0.59 23.05 1.37 -0.78 0.78 -10.74 1.37 -22.27 1.56 l-20.90 0 -0.20 4.88 c0 2.73 -1.56 7.23 -3.52 10.16 -2.15 3.13 -2.93 6.84 -2.15 9.38 1.17 3.91 -1.76 5.47 -3.91 1.95 -0.59 -1.17 -2.93 -1.17 -5.66 0 -2.54 0.98 -5.27 1.17 -5.86 0.59 -0.59 -0.78 -1.17 -0.20 -1.17 1.17 0 1.37 -0.98 1.76 -2.15 0.98 -1.37 -0.78 -1.95 0.39 -1.56 3.32 0.39 2.54 0 5.66 -0.78 6.84 -0.78 1.37 0.59 2.73 3.71 3.32 3.52 0.59 6.84 -0.59 10.74 -3.91 7.62 -6.45 9.18 -4.69 2.73 3.13 -4.10 4.69 -6.64 6.05 -12.30 6.05 -4.10 0 -8.59 -1.17 -10.35 -2.54z"/>
  <path d="M1061.72 692.77 c-0.98 -11.52 -1.17 -21.48 -0.59 -22.07 1.37 -1.37 3.91 30.08 2.93 37.30 -0.39 3.32 -1.56 -3.71 -2.34 -15.23z"/>
 </g>
</svg>